<svg width="364.325px" height="131.6px" xmlns="http://www.w3.org/2000/svg" viewBox="67.8375 9.200000000000003 364.325 131.6" style="background: rgba(0, 0, 0, 0);" preserveAspectRatio="xMidYMid"><defs><linearGradient id="editing-outline-gradient" x1="-0.16913060635885824" x2="1.1691306063588582" y1="-0.24314482547739424" y2="1.2431448254773942"><stop offset="0" stop-color="#ee08d7"></stop><stop offset="1" stop-color="#009cff"></stop></linearGradient><filter id="editing-outline" x="-100%" y="-100%" width="300%" height="300%"><feMorphology in="SourceGraphic" operator="dilate" radius="1" result="outline"></feMorphology><feComposite operator="out" in="outline" in2="SourceAlpha"></feComposite></filter></defs><g filter="url(#editing-outline)"><g transform="translate(123.93498468399048, 99.43500137329102)"><path d="M16.06 0.25L3.69-35.25L12.25-35.25L19.69-10.19L19.69 0.25L16.06 0.25ZM22.25-10.19L29.75-35.25L38.25-35.25L25.88 0.25L22.25 0.25L22.25-10.19ZM54.81-48.56L54.81-10.75L54.81-10.75Q54.81-8.63 55.38-7.41L55.38-7.41L55.38-7.41Q55.94-6.19 56.94-5.59L56.94-5.59L56.94-5.59Q57.94-5 59.22-4.81L59.22-4.81L59.22-4.81Q60.50-4.63 62-4.63L62-4.63L62 0L62 0Q61.19 0.13 60.31 0.19L60.31 0.19L60.31 0.19Q59.63 0.25 58.69 0.28L58.69 0.28L58.69 0.28Q57.75 0.31 56.81 0.31L56.81 0.31L56.81 0.31Q55.88 0.31 54.94 0.25L54.94 0.25L54.94 0.25Q54 0.19 53.25 0.06L53.25 0.06L53.25 0.06Q51.13-0.38 49.94-1.81L49.94-1.81L49.94-1.81Q48.75-3.25 48.13-5.03L48.13-5.03L48.13-5.03Q47.50-6.81 47.34-8.50L47.34-8.50L47.34-8.50Q47.19-10.19 47.19-11.13L47.19-11.13L47.19-11.88L47.19-48.56L54.81-48.56ZM76.13-10.63L76.13-10.63L76.13-10.63Q76.13-7.81 77.28-6.44L77.28-6.44L77.28-6.44Q78.44-5.06 80.63-4.81L80.63-4.81L80.63 0.25L80.63 0.25Q80.38 0.31 79.81 0.31L79.81 0.31L79.81 0.31Q77.69 0.31 75.72-0.25L75.72-0.25L75.72-0.25Q73.75-0.81 72.25-2.06L72.25-2.06L72.25-2.06Q70.75-3.31 69.91-5.38L69.91-5.38L69.91-5.38Q69.06-7.44 69.06-10.44L69.06-10.44L69.06-10.44Q69.06-13.31 70.28-15.41L70.28-15.41L70.28-15.41Q71.50-17.50 73.41-18.84L73.41-18.84L73.41-18.84Q75.31-20.19 77.75-20.84L77.75-20.84L77.75-20.84Q80.19-21.50 82.69-21.50L82.69-21.50L85.44-21.50L85.44-17.06L84.06-17.06L84.06-17.06Q82.81-17.06 81.44-16.81L81.44-16.81L81.44-16.81Q80.06-16.56 78.88-15.88L78.88-15.88L78.88-15.88Q77.69-15.19 76.91-13.91L76.91-13.91L76.91-13.91Q76.13-12.63 76.13-10.63ZM95.56-10.94L95.56-10.44L95.56-10.44Q95.56-9.94 95.63-8.97L95.63-8.97L95.63-8.97Q95.69-8 95.88-7L95.88-7L95.88-7Q96.06-6 96.47-5.19L96.47-5.19L96.47-5.19Q96.88-4.38 97.56-4.13L97.56-4.13L95.56 0.06L95.56 0.06Q94.75 0.06 93.84-0.31L93.84-0.31L93.84-0.31Q92.94-0.69 92.09-1.38L92.09-1.38L92.09-1.38Q91.25-2.06 90.66-2.91L90.66-2.91L90.66-2.91Q90.06-3.75 89.75-4.75L89.75-4.75L89.75-4.75Q89.13-3.19 87.28-1.97L87.28-1.97L87.28-1.97Q85.44-0.75 83.19-0.19L83.19-0.19L83.19-4.94L83.19-4.94Q84.69-5.25 85.91-6.16L85.91-6.16L85.91-6.16Q87.13-7.06 88-8.31L88-8.31L88-21.50L88-21.50Q88-24.56 87.69-26.38L87.69-26.38L87.69-26.38Q87.38-28.19 86.63-29.03L86.63-29.03L86.63-29.03Q85.88-29.88 84.78-30.09L84.78-30.09L84.78-30.09Q83.69-30.31 82.19-30.31L82.19-30.31L82.19-30.31Q80.81-30.31 79.59-29.97L79.59-29.97L79.59-29.97Q78.38-29.63 77.34-29.16L77.34-29.16L77.34-29.16Q76.31-28.69 75.53-28.13L75.53-28.13L75.53-28.13Q74.75-27.56 74.38-27.25L74.38-27.25L71.56-31.56L71.56-31.56Q72.19-32.25 73.44-32.97L73.44-32.97L73.44-32.97Q74.69-33.69 76.31-34.25L76.31-34.25L76.31-34.25Q77.94-34.81 79.84-35.16L79.84-35.16L79.84-35.16Q81.75-35.50 83.81-35.50L83.81-35.50L83.81-35.50Q85.69-35.50 87.47-35.13L87.47-35.13L87.47-35.13Q89.25-34.75 90.72-33.88L90.72-33.88L90.72-33.88Q92.19-33 93.28-31.53L93.28-31.53L93.28-31.53Q94.38-30.06 94.81-27.88L94.81-27.88L94.81-27.88Q95.25-25.69 95.41-23.47L95.41-23.47L95.41-23.47Q95.56-21.25 95.56-19.06L95.56-19.06L95.56-10.94ZM108.13 0L108.13-46.06L115.63-46.06L115.63 0L108.13 0ZM118.19-46.06L122-46.06L122-46.06Q127.81-46.06 132.22-44.22L132.22-44.22L132.22-44.22Q136.63-42.38 139.53-39.31L139.53-39.31L139.53-39.31Q142.44-36.25 143.88-32.34L143.88-32.34L143.88-32.34Q145.31-28.44 145.31-24.31L145.31-24.31L145.31-24.31Q145.31-18.63 144.09-14.59L144.09-14.59L144.09-14.59Q142.88-10.56 141-7.84L141-7.84L141-7.84Q139.13-5.13 136.78-3.56L136.78-3.56L136.78-3.56Q134.44-2 132.25-1.22L132.25-1.22L132.25-1.22Q130.06-0.44 128.25-0.22L128.25-0.22L128.25-0.22Q126.44 0 125.56 0L125.56 0L118.19 0L118.19-5.50L123.06-5.50L123.06-5.50Q130.69-5.50 134.06-10.38L134.06-10.38L134.06-10.38Q137.44-15.25 137.44-24.50L137.44-24.50L137.44-24.50Q137.44-27.38 136.75-30.19L136.75-30.19L136.75-30.19Q136.06-33 134.09-35.28L134.09-35.28L134.09-35.28Q132.13-37.56 128.75-38.97L128.75-38.97L128.75-38.97Q125.38-40.38 120-40.38L120-40.38L118.19-40.38L118.19-46.06ZM163.75-46.06L163.75 0L156.13 0L156.13-46.06L163.75-46.06ZM206.44-41.81L201.25-37.19L201.25-37.19Q199.81-38.81 198.19-39.63L198.19-39.63L198.19-39.63Q196.56-40.44 194.69-40.56L194.69-40.56L194.69-46.75L194.69-46.75Q201.69-46.44 206.44-41.81L206.44-41.81ZM194.69 0.31L194.69-5.88L194.69-5.88Q196.56-6.06 198.22-6.88L198.22-6.88L198.22-6.88Q199.88-7.69 201.25-9.25L201.25-9.25L206.44-4.69L206.44-4.69Q204.06-2.38 201.13-1.13L201.13-1.13L201.13-1.13Q198.19 0.13 194.69 0.31L194.69 0.31ZM174.44-23.25L174.44-23.25L174.44-23.25Q174.44-28.81 175.78-33.06L175.78-33.06L175.78-33.06Q177.13-37.31 179.50-40.25L179.50-40.25L179.50-40.25Q181.88-43.19 185.09-44.81L185.09-44.81L185.09-44.81Q188.31-46.44 192.13-46.75L192.13-46.75L192.13-40.50L192.13-40.50Q190.06-40.19 188.25-39.09L188.25-39.09L188.25-39.09Q186.44-38 185.06-35.94L185.06-35.94L185.06-35.94Q183.69-33.88 182.91-30.72L182.91-30.72L182.91-30.72Q182.13-27.56 182.06-23.25L182.06-23.25L182.06-23.25Q182.13-18.88 182.91-15.75L182.91-15.75L182.91-15.75Q183.69-12.63 185.06-10.50L185.06-10.50L185.06-10.50Q186.44-8.38 188.28-7.25L188.28-7.25L188.28-7.25Q190.13-6.13 192.13-5.88L192.13-5.88L192.13 0.25L192.13 0.25Q188.31 0 185.09-1.63L185.09-1.63L185.09-1.63Q181.88-3.25 179.50-6.19L179.50-6.19L179.50-6.19Q177.13-9.13 175.78-13.41L175.78-13.41L175.78-13.41Q174.44-17.69 174.44-23.25ZM224.88 0L217.25 0L217.25-46.06L224.88-46.06L224.88 0ZM247.19-46.06L232.44-22.38L248.44 0L239.75 0L227.44-18.13L227.44-27.25L238.63-46.06L247.19-46.06Z" fill="url(#editing-outline-gradient)"></path></g></g><style>text {
  font-size: 64px;
  font-family: Arial Black;
  dominant-baseline: central;
  text-anchor: middle;
}</style></svg>